<svg id="Layer_3" enable-background="new 0 0 64 64" height="512" viewBox="0 0 64 64" width="512" xmlns="http://www.w3.org/2000/svg"><path d="m60.351 61-2.699-2.159c-2.021-1.617-4.273-2.901-6.652-3.864v-2.057c3.387-.488 6-3.401 6-6.92v-10c0-.553-.448-1-1-1-1.958 0-3.728.81-5 2.111v-4.19c3.387-.488 6-3.401 6-6.92v-6c0-.552-.448-1-1-1-1.958 0-3.728.81-5 2.11v-4.19c3.387-.488 6-3.401 6-6.92v-2.001c0-.552-.448-1-1-1-2.548 0-4.775 1.373-6 3.413-1.225-2.04-3.452-3.413-6-3.413-.552 0-1 .448-1 1v2c0 3.519 2.613 6.432 6 6.92v4.19c-1.272-1.3-3.042-2.11-5-2.11-.552 0-1 .448-1 1v6c0 3.519 2.613 6.432 6 6.92v4.19c-1.272-1.3-3.042-2.11-5-2.11-.552 0-1 .447-1 1v10c0 3.519 2.613 6.432 6 6.92v1.338c-2.578-.813-5.274-1.258-8-1.258-1.5 0-3.008.135-4.49.388-1.157-.2-2.331-.301-3.51-.346v-6.122c3.387-.488 6-3.401 6-6.92v-10c0-.552-.448-1-1-1-1.958 0-3.728.81-5 2.11v-4.19c3.387-.488 6-3.401 6-6.92v-6c0-.552-.448-1-1-1-1.958 0-3.728.81-5 2.11v-4.19c3.387-.488 6-3.401 6-6.92v-2c0-.552-.448-1-1-1-2.548 0-4.775 1.373-6 3.413-1.225-2.04-3.452-3.413-6-3.413-.552 0-1 .448-1 1v2c0 3.519 2.613 6.432 6 6.92v4.19c-1.272-1.3-3.042-2.11-5-2.11-.552 0-1 .448-1 1v6c0 3.519 2.613 6.432 6 6.92v4.19c-1.272-1.3-3.042-2.11-5-2.11-.552 0-1 .448-1 1v10c0 3.519 2.613 6.432 6 6.92v6.123c-1.179.045-2.353.146-3.51.346-1.482-.254-2.99-.389-4.49-.389-2.726 0-5.422.445-8 1.258v-1.338c3.387-.488 6-3.401 6-6.92v-10c0-.553-.448-1-1-1-1.958 0-3.728.81-5 2.111v-4.19c3.387-.488 6-3.401 6-6.92v-6c0-.552-.448-1-1-1-1.958 0-3.728.81-5 2.11v-4.19c3.387-.488 6-3.401 6-6.92v-2.001c0-.552-.448-1-1-1-2.548 0-4.775 1.373-6 3.413-1.225-2.04-3.452-3.413-6-3.413-.552 0-1 .448-1 1v2c0 3.519 2.613 6.432 6 6.92v4.19c-1.272-1.3-3.042-2.11-5-2.11-.552 0-1 .448-1 1v6c0 3.519 2.613 6.432 6 6.92v4.19c-1.272-1.3-3.042-2.11-5-2.11-.552 0-1 .447-1 1v10c0 3.519 2.613 6.432 6 6.92v2.057c-2.379.963-4.631 2.247-6.652 3.864l-2.699 2.159h-2.649v2h62v-2zm-5.351-23.899v8.899c0 2.415-1.721 4.435-4 4.899v-8.899c0-2.415 1.721-4.435 4-4.899zm0-16v4.899c0 2.415-1.721 4.435-4 4.899v-4.899c0-2.415 1.721-4.435 4-4.899zm0-12v.899c0 2.415-1.721 4.435-4 4.899v-.899c0-2.415 1.721-4.435 4-4.899zm-10 .899v-.899c2.279.464 4 2.485 4 4.899v.899c-2.279-.464-4-2.484-4-4.899zm0 16v-4.899c2.279.464 4 2.485 4 4.899v4.899c-2.279-.464-4-2.484-4-4.899zm0 20v-8.899c2.279.465 4 2.484 4 4.899v8.899c-2.279-.464-4-2.484-4-4.899zm-26-8.899v8.899c0 2.415-1.721 4.435-4 4.899v-8.899c0-2.415 1.721-4.435 4-4.899zm0-16v4.899c0 2.415-1.721 4.435-4 4.899v-4.899c0-2.415 1.721-4.435 4-4.899zm0-12v.899c0 2.415-1.721 4.435-4 4.899v-.899c0-2.415 1.721-4.435 4-4.899zm-10 .899v-.899c2.279.464 4 2.485 4 4.899v.899c-2.279-.464-4-2.484-4-4.899zm0 16v-4.899c2.279.464 4 2.485 4 4.899v4.899c-2.279-.464-4-2.484-4-4.899zm0 20v-8.899c2.279.465 4 2.484 4 4.899v8.899c-2.279-.464-4-2.484-4-4.899zm47.403 14.403.746.597h-5.798l-2.699-2.159c-1.97-1.576-4.159-2.836-6.471-3.792 5.144.264 10.181 2.121 14.222 5.354zm-24.403-5.403c5.578 0 11.048 1.919 15.403 5.403l.746.597h-32.298l.746-.597c4.355-3.484 9.825-5.403 15.403-5.403zm5-23.899v8.899c0 2.415-1.721 4.435-4 4.899v-8.899c0-2.415 1.721-4.435 4-4.899zm0-16v4.899c0 2.415-1.721 4.435-4 4.899v-4.899c0-2.415 1.721-4.435 4-4.899zm0-12v.899c0 2.415-1.721 4.435-4 4.899v-.899c0-2.415 1.721-4.435 4-4.899zm-10 .899v-.899c2.279.464 4 2.484 4 4.899v.899c-2.279-.464-4-2.484-4-4.899zm0 16v-4.899c2.279.464 4 2.485 4 4.899v4.899c-2.279-.464-4-2.484-4-4.899zm0 20v-8.899c2.279.464 4 2.484 4 4.899v8.899c-2.279-.464-4-2.484-4-4.899zm-19.403 20.403c4.041-3.233 9.078-5.09 14.222-5.354-2.312.955-4.501 2.215-6.471 3.791l-2.699 2.16h-5.798z"/></svg>