<svg id="_x33_0" enable-background="new 0 0 64 64" height="512" viewBox="0 0 64 64" width="512" xmlns="http://www.w3.org/2000/svg"><g><path d="m63 37c0-9.534-7.77-12.801-10.711-13.695.045-.114.085-.227.125-.338 1.574-.165 3.586-1.272 3.586-3.967v-9c0-.09-.148-9-13-9s-13 8.91-13 9v9c0 2.695 2.012 3.802 3.586 3.966.039.112.08.224.125.338-2.941.895-10.711 4.162-10.711 13.696 0 4.605 2.255 7.591 5.011 9.524.092 6.895 1.922 9.778 2.885 10.814-.507.635-.896 1.507-.896 2.662l-.001.215c-.006.768-.012 1.638.598 2.252.351.353.823.533 1.403.533h10 2 10c.58 0 1.052-.18 1.403-.533.609-.614.604-1.484.598-2.252l-.001-.215c0-1.155-.389-2.027-.896-2.662.964-1.036 2.794-3.919 2.885-10.814 2.756-1.933 5.011-4.919 5.011-9.524zm-28-17v-7.988c.005-.202.047-.419.156-.601.121.532.321 1.082.646 1.626 1.334 2.237 4.188 3.569 8.481 3.96l.103-1.133c1.428.726 3.279 1.248 5.678 1.248.303 0 .616-.01.936-.027v2.915c0 .286-.091 7-8 7-7.861 0-7.998-6.717-8-7zm17.932.799c.063-.48.068-.783.068-.799v-2.996c.212.023 1 .226 1 1.996 0 1.077-.534 1.569-1.068 1.799zm-9.932-17.799c10.788 0 10.996 6.72 11 7v5.227c-.363-.155-.716-.227-1-.227v-3h-2v3.068c-7.264.43-8.982-4.186-9.054-4.391l-1.895.639c.011.035.648 1.846 2.605 3.434-2.559-.471-4.324-1.393-5.126-2.721-1.023-1.694-.243-3.621-.235-3.641l-.921-.388-.919-.394c-.023.053-.271.654-.39 1.534-1.488.429-2.065 1.846-2.065 2.86v3c-.284 0-.637.072-1 .227v-5.221c.004-.286.212-7.006 11-7.006zm-11 16c0-1.77.788-1.973 1-1.996v2.996c0 .016.005.319.068.801-.527-.228-1.068-.716-1.068-1.801zm-7 18c0-8.798 7.536-11.352 9.648-11.895 1.358 2.031 3.831 3.895 8.352 3.895s6.994-1.864 8.352-3.895c2.112.543 9.648 3.097 9.648 11.895 0 8.508-9.197 10.483-12.17 10.9l-.685-4.109c2.523-.619 8.731-2.96 7.849-10.901l-1.988.221c.095.858.081 1.626-.006 2.328v-.439c0-1.729-1.254-5-6-5-2.582 0-4.125.97-5 2.131-.875-1.161-2.418-2.131-5-2.131-4.746 0-6 3.271-6 5v.466c-.088-.709-.102-1.487-.006-2.356l-1.988-.221c-.882 7.941 5.325 10.282 7.849 10.901l-.685 4.11c-2.973-.417-12.17-2.392-12.17-10.9zm27 19h-8v-5.433c.557.183 1.175.314 1.812.314.894 0 1.813-.245 2.619-.919.611-.071 1.946-.266 3.569-.716zm-18-6.755c1.623.451 2.959.645 3.569.716.806.674 1.726.919 2.619.919.636 0 1.254-.13 1.812-.314v5.434h-8zm18-9.65c-1.83 1.796-4.304 2.289-4.957 2.39-.522-.106-1.862-.301-3.043.108v-7.093c0-.123.046-3 4-3 3.834 0 3.994 2.701 4 3zm-12.131 4.276c.62-.062 1.41-.042 1.816.277.134.106.315.31.315.852v3.416c-.659.324-1.922.78-2.917.169zm4.131 1.129c0-.542.181-.746.315-.852.406-.32 1.196-.34 1.816-.278l.786 4.715c-.998.615-2.257.159-2.917-.168zm-2-2.906c-1.182-.41-2.523-.215-3.045-.108-.657-.098-3.127-.58-4.955-2.37v-4.616c0-.123.046-3 4-3 3.834 0 3.994 2.701 4 3zm-10 6.5v6.91c-.67-.989-1.73-3.25-1.954-7.764.654.33 1.312.612 1.954.854zm.025 12.4c-.03-.192-.028-.527-.026-.765l.001-.229c0-1.347.868-1.858 1.186-2h8.814v3zm21.949.006h-9.974v-3h8.811c.329.147 1.189.659 1.189 2l.001.229c.002.241.004.58-.027.771zm.026-5.496v-6.909c.642-.242 1.3-.525 1.954-.855-.222 4.516-1.277 6.771-1.954 7.764z"/><path d="m41.707 18.707-1.414-1.414c-1.182 1.179-2.282.294-2.592-.006l-1.408 1.42c.619.619 1.643 1.177 2.776 1.177.86 0 1.782-.321 2.638-1.177z"/><path d="m49.707 18.707-1.414-1.414c-1.181 1.179-2.282.294-2.592-.006l-1.408 1.42c.619.619 1.643 1.177 2.776 1.177.86 0 1.782-.321 2.638-1.177z"/><path d="m40.316 24.949c.026-.009 2.713-.886 5.367 0l.633-1.897c-3.282-1.095-6.497-.046-6.633 0z"/><path d="m26.896 52h-25.792l-.099.89c-.016.143-.358 3.527 2.191 6.376 2.219 2.478 5.854 3.734 10.804 3.734s8.585-1.256 10.803-3.734c2.55-2.849 2.207-6.233 2.191-6.376zm-3.583 5.932c-1.823 2.036-4.956 3.068-9.313 3.068-4.339 0-7.465-1.024-9.29-3.043-1.26-1.394-1.61-2.988-1.699-3.957h21.984c-.084.957-.427 2.529-1.682 3.932z"/><path d="m12 51c5.514 0 10-4.486 10-10s-4.486-10-10-10-10 4.486-10 10 4.486 10 10 10zm0-18c4.411 0 8 3.589 8 8s-3.589 8-8 8-8-3.589-8-8 3.589-8 8-8z"/><path d="m11 48h2v-2h3v-6h-6v-2h6v-2h-3v-2h-2v2h-3v6h6v2h-6v2h3z"/></g></svg>