<?xml version="1.0" encoding="iso-8859-1"?>
<!-- Generator: Adobe Illustrator 19.0.0, SVG Export Plug-In . SVG Version: 6.00 Build 0)  -->
<svg version="1.1" id="Capa_1" xmlns="http://www.w3.org/2000/svg" xmlns:xlink="http://www.w3.org/1999/xlink" x="0px" y="0px"
	 viewBox="0 0 496 496" style="enable-background:new 0 0 496 496;" xml:space="preserve">
<g>
	<g>
		<g>
			<path d="M240,192v48h256v-48H240z M480,224H256v-16h224V224z"/>
			<polygon points="256,176 272,176 272,163.936 368,90.096 464,163.936 464,176 480,176 480,156.064 368,69.904 256,156.064 			"/>
			<path d="M496,408c0-22.448-7.72-44.456-21.744-61.984l-7.008-8.76C462.552,331.376,455.536,328,448,328
				c-5.976,0-11.576,2.2-16,6.008V320h-48v48h24.472c-5.52,12.544-8.472,26.184-8.472,40c0,23.736,17.336,43.448,40,47.28V480h-40
				v-72v-8h-64v80h-80v-24.72c22.664-3.824,40-23.536,40-47.28c0-22.448-7.72-44.456-21.744-61.984l-7.008-8.76
				C262.552,331.376,255.536,328,248,328s-14.552,3.376-19.24,9.248l-7.016,8.768C207.72,363.544,200,385.552,200,408
				c0,23.736,17.336,43.448,40,47.28V480h-72v-80h-64v80H56v-24.72c22.664-3.824,40-23.536,40-47.28c0-19.968-6.144-39.568-17.36-56
				H88v-48H40v25.48c-4.352,1.496-8.288,4.064-11.24,7.768l-7.016,8.768C7.72,363.544,0,385.552,0,408
				c0,23.736,17.336,43.448,40,47.28V480H16v-24H0v40h40h16h184h16h184h16h40v-40h-16v24h-24v-24.72
				C478.664,451.448,496,431.736,496,408z M56,320h16v16h-6.008c-2.784-3.016-6.192-5.208-9.992-6.52V320z M40,400v38.864
				C26.24,435.288,16,422.872,16,408c0-18.832,6.48-37.288,18.232-51.984l7.016-8.776C42.904,345.176,45.36,344,48,344
				s5.096,1.176,6.752,3.248l7.016,8.768C73.52,370.712,80,389.168,80,408c0,14.872-10.24,27.288-24,30.864V400H40z M152,480h-32
				v-64h32V480z M240,400v38.864c-13.76-3.576-24-15.992-24-30.864c0-18.832,6.48-37.288,18.232-51.984l7.016-8.776
				c1.656-2.064,4.112-3.24,6.752-3.24s5.096,1.176,6.752,3.248l7.016,8.768C273.52,370.712,280,389.168,280,408
				c0,14.872-10.24,27.288-24,30.864V400H240z M384,480h-32v-64h32V480z M400,352v-16h16v16H400z M440,400v38.864
				c-13.76-3.576-24-15.992-24-30.864c0-18.832,6.48-37.288,18.232-51.984l7.016-8.776c1.656-2.064,4.112-3.24,6.752-3.24
				s5.096,1.176,6.752,3.248l7.016,8.768C473.52,370.712,480,389.168,480,408c0,14.872-10.24,27.288-24,30.864V400H440z"/>
			<rect x="256" y="256" width="16" height="64"/>
			<rect x="464" y="256" width="16" height="64"/>
			<path d="M432,256h-48v48h48V256z M416,288h-16v-16h16V288z"/>
			<path d="M352,256h-48v48h48V256z M336,288h-16v-16h16V288z"/>
			<path d="M152,112h-48v48h48V112z M136,144h-16v-16h16V144z"/>
			<path d="M216,112h-48v48h48V112z M200,144h-16v-16h16V144z"/>
			<path d="M88,112H40v48h48V112z M72,144H56v-16h16V144z"/>
			<path d="M152,176h-48v48h48V176z M136,208h-16v-16h16V208z"/>
			<path d="M216,176h-48v48h48V176z M200,208h-16v-16h16V208z"/>
			<path d="M88,176H40v48h48V176z M72,208H56v-16h16V208z"/>
			<path d="M152,240h-48v48h48V240z M136,272h-16v-16h16V272z"/>
			<path d="M216,240h-48v48h48V240z M200,272h-16v-16h16V272z"/>
			<path d="M40,288h48v-48H40V288z M56,256h16v16H56V256z"/>
			<path d="M104,352h48v-48h-48V352z M120,320h16v16h-16V320z"/>
			<path d="M168,352h48v-48h-48V352z M184,320h16v16h-16V320z"/>
			<path d="M304,368h48v-48h-48V368z M320,336h16v16h-16V336z"/>
			<polygon points="16,96 240,96 240,136 256,136 256,80 0,80 0,344 16,344 			"/>
			<path d="M40,48h176v16h16V32h-16V0H40v32H24v32h16V48z M56,16h144v16H56V16z"/>
		</g>
	</g>
</g>
<g>
</g>
<g>
</g>
<g>
</g>
<g>
</g>
<g>
</g>
<g>
</g>
<g>
</g>
<g>
</g>
<g>
</g>
<g>
</g>
<g>
</g>
<g>
</g>
<g>
</g>
<g>
</g>
<g>
</g>
</svg>
