<?xml version="1.0" encoding="iso-8859-1"?>
<!-- Generator: Adobe Illustrator 19.0.0, SVG Export Plug-In . SVG Version: 6.00 Build 0)  -->
<svg xmlns="http://www.w3.org/2000/svg" xmlns:xlink="http://www.w3.org/1999/xlink" version="1.1" id="Layer_1" x="0px" y="0px" viewBox="0 0 439.48 439.48" style="enable-background:new 0 0 439.48 439.48;" xml:space="preserve" width="512" height="512">
<g>
	<path style="fill:#EAB932;" d="M176.8,15.58c27.75,0,50.25,22.5,50.25,50.25s-22.5,50.25-50.25,50.25c-0.27,0-0.55,0-0.82-0.01   l-48.65-59.16C131.55,33.42,152.09,15.58,176.8,15.58z"/>
	<path style="fill:#FFD039;" d="M227.05,65.83c0,27.75-22.5,50.24-50.25,50.24c-4.47,0-8.81-0.58-12.94-1.68   c-8.21-7.91-13.31-19.01-13.31-31.31c0-24.03,19.48-43.5,43.5-43.5c12.3,0,23.4,5.1,31.32,13.31   C226.47,57.02,227.05,61.36,227.05,65.83z"/>
	<rect x="337.977" y="30.732" style="fill:#CCCCCC;" width="12" height="25.999"/>
	<rect x="329.73" y="48.73" style="fill:#E6E6E6;" width="28.5" height="32.5"/>
	<polygon style="fill:#CCCCCC;" points="376.98,74.23 376.98,135.73 310.98,135.73 310.98,74.23 329.73,74.23 358.23,74.23  "/>
	<polygon style="fill:#E6E6E6;" points="393.47,126.73 393.47,403.4 360.48,403.4 294.48,330.4 294.48,330.39 294.48,126.73    310.98,126.73 376.98,126.73  "/>
	<g>
		<rect x="338.663" y="144.233" style="fill:#4D4D4D;" width="10.624" height="238.999"/>
		<rect x="363.163" y="144.229" style="fill:#4D4D4D;" width="10.624" height="239.002"/>
		<rect x="314.163" y="144.229" style="fill:#4D4D4D;" width="10.624" height="239.002"/>
	</g>
	<rect x="325.478" y="88.306" style="fill:#4D4D4D;" width="15" height="24.344"/>
	<rect x="347.476" y="88.306" style="fill:#4D4D4D;" width="15" height="24.344"/>
	<rect x="46" y="193" style="fill:#BCA2A2;" width="62.99" height="210.4"/>
	<polygon style="fill:#E6E6E6;" points="175.98,116.07 175.98,403.4 149.99,403.4 97.99,403.4 97.99,193 97.99,56.91 127.33,56.91    175.98,56.91  "/>
	<g>
		<rect x="109.486" y="69.793" style="fill:#4D4D4D;" width="11.316" height="320.735"/>
		<rect x="131.327" y="69.793" style="fill:#4D4D4D;" width="11.316" height="320.735"/>
		<rect x="153.169" y="69.793" style="fill:#4D4D4D;" width="11.316" height="320.735"/>
	</g>
	<path style="fill:#4D4D4D;" d="M80.39,225.73c0,4.14-3.36,7.5-7.5,7.5H46v-15h26.89C77.03,218.23,80.39,221.59,80.39,225.73z"/>
	<path style="fill:#4D4D4D;" d="M80.39,366.73c0,4.14-3.36,7.5-7.5,7.5H46v-15h26.89C77.03,359.23,80.39,362.59,80.39,366.73z"/>
	<path style="fill:#4D4D4D;" d="M80.39,338.53c0,4.14-3.36,7.5-7.5,7.5H46v-15h26.89C77.03,331.03,80.39,334.39,80.39,338.53z"/>
	<path style="fill:#4D4D4D;" d="M80.39,253.93c0,4.14-3.36,7.5-7.5,7.5H46v-15h26.89C77.03,246.43,80.39,249.79,80.39,253.93z"/>
	<path style="fill:#4D4D4D;" d="M80.39,310.33c0,4.14-3.36,7.5-7.5,7.5H46v-15h26.89C77.03,302.83,80.39,306.19,80.39,310.33z"/>
	<path style="fill:#4D4D4D;" d="M80.39,282.13c0,4.14-3.36,7.5-7.5,7.5H46v-15h26.89C77.03,274.63,80.39,277.99,80.39,282.13z"/>
	<polygon style="fill:#CCCCCC;" points="227.98,330.39 227.98,330.4 218.74,403.4 175.98,403.4 149.99,403.4 149.99,165.06    175.98,165.06 227.98,165.06  "/>
	<g>
		<rect x="183.673" y="184.232" style="fill:#4D4D4D;" width="10.624" height="197"/>
		<rect x="208.173" y="184.229" style="fill:#4D4D4D;" width="10.624" height="197.002"/>
		<rect x="159.173" y="184.229" style="fill:#4D4D4D;" width="10.624" height="197.002"/>
	</g>
	<polygon style="fill:#BCA2A2;" points="360.48,330.4 360.48,403.4 294.48,403.4 227.98,403.4 201.98,403.4 201.98,330.4    227.98,330.4 294.48,330.4  "/>
	<g>
		<rect x="218.73" y="342.067" style="fill:#4D4D4D;" width="125" height="9.058"/>
		<rect x="218.73" y="360.371" style="fill:#4D4D4D;" width="125" height="9.058"/>
		<rect x="218.73" y="378.676" style="fill:#4D4D4D;" width="125" height="9.058"/>
	</g>
	<path style="fill:#B3B3B3;" d="M439.48,423.9H0c0-4.7,1.27-9.11,3.5-12.89c4.42-7.55,12.62-12.61,22-12.61h388.48   c7.04,0,13.42,2.85,18.03,7.47c1.53,1.53,2.87,3.26,3.97,5.14C438.2,414.79,439.48,419.2,439.48,423.9z"/>
	<path style="fill:#999999;" d="M439.48,423.9H0c0-4.7,1.27-9.11,3.5-12.89h432.48C438.2,414.79,439.48,419.2,439.48,423.9z"/>
</g>















</svg>
