<?xml version="1.0" encoding="iso-8859-1"?>
<!-- Generator: Adobe Illustrator 19.0.0, SVG Export Plug-In . SVG Version: 6.00 Build 0)  -->
<svg version="1.1" id="Capa_1" xmlns="http://www.w3.org/2000/svg" xmlns:xlink="http://www.w3.org/1999/xlink" x="0px" y="0px"
	 viewBox="0 0 511.999 511.999" style="enable-background:new 0 0 511.999 511.999;" xml:space="preserve">
<g>
	<g>
		<path d="M510.437,451.801l-54.533-70.114v-46.022h48.601c6.788,0,10.067-8.714,4.936-13.183l-114.746-99.94
			c-3.131-2.726-7.878-2.399-10.603,0.732c-2.727,3.13-2.4,7.877,0.731,10.604l99.61,86.758h-24.915l-21.848-21.848
			c-2.936-2.935-7.694-2.935-10.629,0s-2.935,7.694,0,10.628l11.22,11.22h-18.825l-21.848-21.848c-2.936-2.935-7.694-2.935-10.629,0
			c-2.935,2.935-2.935,7.694,0,10.628l11.22,11.22h-27.175l-110.122-94.39c-2.742-2.35-6.766-2.419-9.586-0.162l-118.191,94.551
			h-19.302l11.22-11.22c2.935-2.935,2.935-7.694,0-10.628c-2.936-2.935-7.694-2.935-10.629,0l-21.848,21.848H73.72l11.22-11.22
			c2.935-2.935,2.935-7.694,0-10.628c-2.936-2.935-7.694-2.935-10.629,0l-21.848,21.848H27.548c0,0,157.107-136.903,157.402-137.284
			h142.939c0.432,0.972,27.627,25.002,27.627,25.002c3.303,2.876,8.496,2.254,11.046-1.294c2.233-3.104,1.707-7.533-1.174-10.042
			l-15.692-13.666h18.526c3.146,0,5.957-1.958,7.049-4.908c1.091-2.949,0.229-6.267-2.158-8.313l-109.607-93.95V55.584
			c0-4.151-3.364-7.516-7.516-7.516s-7.516,3.365-7.516,7.516v20.437l-117.429,93.943c-2.506,2.005-3.466,5.485-2.346,8.492
			c1.083,2.909,3.936,4.892,7.042,4.892h26.543L2.54,322.482c-5.131,4.469-1.852,13.183,4.936,13.183h48.601v46.022L1.544,451.802
			c-3.771,4.842-0.189,12.129,5.936,12.129h497.022c2.324-0.001,4.553-1.111,5.963-2.95
			C512.518,458.31,512.512,454.464,510.437,451.801z M157.165,168.317l98.66-78.927l92.082,78.927h-31.156l-5.939-11.879
			c-1.855-3.713-6.367-5.218-10.084-3.361c-3.712,1.856-5.217,6.37-3.361,10.083l2.578,5.157h-36.44V159.8
			c0-4.151-3.364-7.516-7.516-7.516s-7.516,3.365-7.516,7.516v8.518h-36.44l2.578-5.157c1.857-3.713,0.352-8.227-3.361-10.083
			c-3.715-1.858-8.228-0.351-10.084,3.361l-5.939,11.879H157.165z M56.077,448.899H22.842l33.235-42.729V448.899z M128.226,448.899
			H71.108V335.664h57.118V448.899z M312.609,448.899H199.374V335.664h113.235V448.899z M360.708,448.9H327.64V328.15
			c0-4.151-3.364-7.516-7.516-7.516H191.858c-4.152,0-7.516,3.365-7.516,7.516V448.9h-41.085V331.761l112.568-90.055l104.882,89.899
			V448.9z M440.874,448.899h-65.135V335.664h65.135V448.899z M455.904,448.899v-42.729l33.235,42.729H455.904z"/>
	</g>
</g>
<g>
</g>
<g>
</g>
<g>
</g>
<g>
</g>
<g>
</g>
<g>
</g>
<g>
</g>
<g>
</g>
<g>
</g>
<g>
</g>
<g>
</g>
<g>
</g>
<g>
</g>
<g>
</g>
<g>
</g>
</svg>
