<?xml version="1.0" encoding="iso-8859-1"?>
<!-- Generator: Adobe Illustrator 19.0.0, SVG Export Plug-In . SVG Version: 6.00 Build 0)  -->
<svg version="1.1" id="Capa_1" xmlns="http://www.w3.org/2000/svg" xmlns:xlink="http://www.w3.org/1999/xlink" x="0px" y="0px"
	 viewBox="0 0 512 512" style="enable-background:new 0 0 512 512;" xml:space="preserve">
<g>
	<g>
		<path d="M478.314,209.396c-0.957-1.143-23.87-28.362-62.091-60.336c-31.088-26.007-77.88-59.529-132.602-80.451l36.031-36.031
			l-21.213-21.213l-27.439,27.439V0h-30v38.804l-27.438-27.438l-21.213,21.213L228.38,68.61
			c-54.722,20.922-101.514,54.444-132.602,80.451c-38.221,31.975-61.134,59.193-62.091,60.336l-20.612,24.627h32.115
			c7.272,0,10.699,1.805,15.418,5.122V512h135.817h119.15h135.817V239.143c4.718-3.316,8.146-5.12,15.418-5.12h32.116
			L478.314,209.396z M285.574,482h-59.149v-78.147c0-15.566,12.664-28.229,28.229-28.229h2.69c15.566,0,28.23,12.664,28.23,28.229
			V482z M421.391,482H315.574v-78.147c0-32.108-26.122-58.229-58.23-58.229h-2.69c-32.107,0-58.229,26.122-58.229,58.229V482H90.606
			V252.591c2.275,0.269,4.685,0.431,7.282,0.431c18.019,0,27.904-7.127,35.123-12.332c5.962-4.298,9.247-6.667,17.579-6.667
			c8.331,0,11.615,2.368,17.577,6.667c7.218,5.204,17.104,12.332,35.122,12.332s27.904-7.127,35.122-12.332
			c5.962-4.299,9.246-6.667,17.578-6.667c8.332,0,11.616,2.368,17.578,6.667c7.219,5.205,17.104,12.332,35.124,12.332
			c18.019,0,27.904-7.127,35.123-12.332c5.962-4.299,9.246-6.667,17.578-6.667c8.334,0,11.618,2.368,17.582,6.667
			c7.219,5.204,17.105,12.332,35.126,12.332c2.6,0,5.012-0.163,7.29-0.432V482z M431.684,216.354
			c-5.964,4.299-9.248,6.667-17.582,6.667c-8.334,0-11.619-2.368-17.583-6.667c-7.219-5.204-17.105-12.331-35.125-12.331
			c-18.019,0-27.904,7.127-35.123,12.332c-5.962,4.299-9.246,6.667-17.578,6.667c-8.332,0-11.617-2.368-17.579-6.667
			c-7.219-5.204-17.104-12.332-35.123-12.332c-18.02,0-27.905,7.128-35.123,12.332c-5.962,4.299-9.246,6.667-17.577,6.667
			s-11.615-2.368-17.577-6.667c-7.218-5.204-17.104-12.332-35.122-12.332c-18.02,0-27.905,7.127-35.124,12.332
			c-5.962,4.299-9.246,6.667-17.578,6.667c-8.332,0-11.616-2.368-17.578-6.667c-2.215-1.597-4.681-3.375-7.555-5.072
			c30.015-30.741,99.218-93.969,183.243-120.571c84.025,26.602,153.227,89.828,183.242,120.569
			C436.366,212.979,433.899,214.757,431.684,216.354z"/>
	</g>
</g>
<g>
</g>
<g>
</g>
<g>
</g>
<g>
</g>
<g>
</g>
<g>
</g>
<g>
</g>
<g>
</g>
<g>
</g>
<g>
</g>
<g>
</g>
<g>
</g>
<g>
</g>
<g>
</g>
<g>
</g>
</svg>
