<svg id="_x33_0" enable-background="new 0 0 64 64" height="512" viewBox="0 0 64 64" width="512" xmlns="http://www.w3.org/2000/svg"><path d="m41.391 57h22.301l-7.7-14h3.902c1.516 0 2.834-1.076 3.066-2.503.143-.879-.103-1.768-.674-2.439-.364-.43-.836-.741-1.359-.911-.458-2.651-3.066-4.621-5.872-4.05-1.243-1.746-3.484-2.519-5.629-1.854-1.639.511-2.972 1.846-3.603 3.555-1.116-1.327-2.896-2.08-4.766-1.702-.662-.935-1.613-1.595-2.696-1.901l-7.128-10.901 1.821-2.785c.528.9 1.503 1.491 2.59 1.491 1.234 0 2.329-.741 2.789-1.889l1.045-2.615c.121-.301.409-.496.733-.496.435 0 .789.354.789.789v3.211c0 1.654 1.346 3 3 3s3-1.346 3-3v-5.352c0-.357.291-.648.648-.648.309 0 .575.219.636.521l.382 1.908c.299 1.489 1.617 2.57 3.136 2.57.907 0 1.729-.397 2.316-1.02l7.05 10.575 1.664-1.109-15.406-23.109c-.558-.837-1.491-1.336-2.496-1.336h-1.848c-1.016 0-1.955.508-2.511 1.358l-10.533 16.109-6.61-10.108c-.555-.851-1.494-1.359-2.51-1.359h-1.848c-1.005 0-1.938.499-2.496 1.336l-15.406 23.109 1.664 1.109 7.05-10.575c.588.623 1.41 1.02 2.316 1.02 1.519 0 2.837-1.081 3.136-2.57l.382-1.909c.06-.301.327-.52.636-.52.357 0 .648.291.648.648v5.352c0 1.654 1.346 3 3 3s3-1.346 3-3v-3.211c0-.435.354-.789.789-.789.324 0 .612.195.732.495l1.046 2.617c.46 1.147 1.555 1.888 2.789 1.888 1.087 0 2.062-.591 2.59-1.491l4.982 7.619c-1.955.431-3.49 1.997-3.848 3.979-.58.138-1.114.408-1.573.774-.8-1.695-2.511-2.881-4.507-2.881-.313 0-.628.032-.943.096-.929-1.311-2.419-2.096-4.057-2.096-1.896 0-3.587 1.1-4.43 2.716-.752-.453-1.63-.716-2.57-.716-.313 0-.628.032-.943.096-.929-1.311-2.419-2.096-4.057-2.096-2.452 0-4.498 1.774-4.92 4.106-1.764.417-3.08 2.005-3.08 3.894 0 2.206 1.794 4 4 4h3.009l-7.7 14h22.301l-2.2 4h-19.41v2h62v-2h-19.409zm.854-53.548c.186-.283.498-.452.837-.452h1.848c.335 0 .646.166.832.445l7.156 10.735c-.162.473-.597.82-1.116.82-.568 0-1.063-.405-1.175-.963l-.382-1.907c-.245-1.234-1.338-2.13-2.597-2.13-1.46 0-2.648 1.188-2.648 2.648v5.352c0 .552-.448 1-1 1s-1-.448-1-1v-3.211c0-1.538-1.251-2.789-2.789-2.789-1.146 0-2.162.688-2.59 1.753l-1.046 2.615c-.153.384-.519.632-.931.632-.478 0-.892-.34-.985-.808l-.174-.871zm-12.954 45.548 2.709-4.926 2.709 4.926zm4.209 2h2.309l5.5 10h-3.643zm2 10h-7l3.5-8.4zm-1.809-18h12.318l-6.159 11.199zm14.6 0 2.709-4.925 2.709 4.925zm-1.1 2h2.309l-4.167 10h-3.642zm3.809 1.6 3.5 8.4h-7zm5.667 8.4-4.167-10h2.309l5.5 10zm-6.647-21.847c1.741-.544 3.126.423 3.671 1.551l.398.823.855-.323c2.094-.791 4.056.8 4.056 2.796v1h1c.294 0 .572.129.763.353.193.228.272.52.223.822-.076.463-.555.825-1.092.825h-5.002l-3.892-7.075-2.467 4.486c-.315-.5-.771-.899-1.315-1.143l.341-1.346c.34-1.342 1.283-2.402 2.461-2.769zm-20.678-10.961c-.094.468-.508.808-.986.808-.412 0-.778-.248-.932-.631l-1.047-2.617c-.426-1.064-1.442-1.752-2.588-1.752-1.538 0-2.789 1.251-2.789 2.789v3.211c0 .552-.448 1-1 1s-1-.448-1-1v-5.352c0-1.46-1.188-2.648-2.648-2.648-1.259 0-2.352.896-2.597 2.129l-.382 1.908c-.112.558-.606.963-1.175.963-.519 0-.954-.347-1.116-.82l7.156-10.735c.186-.279.497-.445.832-.445h1.848c.339 0 .651.169.837.452l7.761 11.869zm3.658 14.808h1v-1c0-1.654 1.346-3 3-3 1.151 0 2.183.652 2.69 1.704l.398.823.855-.323c2.096-.791 4.057.8 4.057 2.796v1h1c.552 0 1 .448 1 1s-.448 1-1 1h-13.184c.112-.314.184-.648.184-1 0-1.03-.525-1.935-1.318-2.476.359-.32.816-.524 1.318-.524zm-12-4c1.151 0 2.183.652 2.69 1.704l.398.823.855-.323c2.096-.791 4.057.8 4.057 2.796v1h1c.552 0 1 .448 1 1s-.448 1-1 1h-9.184c.112-.314.184-.648.184-1 0-1.331-.871-2.462-2.073-2.854-.124-.715-.414-1.368-.808-1.945.356-1.274 1.531-2.201 2.881-2.201zm-4 5v1h1c.552 0 1 .448 1 1s-.448 1-1 1h-1.109l-3.277-5.959c1.823-.267 3.386 1.178 3.386 2.959zm-6.709 5 2.709-4.925 2.709 4.925zm-5.291-2c-1.103 0-2-.897-2-2s.897-2 2-2h1v-1c0-1.654 1.346-3 3-3 1.151 0 2.183.652 2.69 1.704l.398.823.038-.014-3.017 5.487zm4.191 4h2.309l-4.167 10h-3.642zm3.809 1.6 3.5 8.4h-7zm5.667 8.4-4.167-10h2.309l5.5 10zm-.676-12h12.318l-6.159 11.199zm10.2 8h2.309l-4.167 10h-3.643z"/></svg>