<svg height="496pt" viewBox="0 0 496 496" width="496pt" xmlns="http://www.w3.org/2000/svg"><path d="m0 480h16v16h-16zm0 0"/><path d="m480 480h16v16h-16zm0 0"/><path d="m496 112v-112h-80v96h-16v-61.769531l-48-16v-18.230469h-96v48h-32v-12.945312l-40-20-40 20v60.945312h-16v-96h-80v32h-48v80h126.167969l-21.664063 104h-104.503906v48h32v112h-16v16h51.832031l-18.335937 88h-17.496094v16h432v-16h-17.496094l-18.335937-88h51.832031v-16h-16v-112h32v-48h-104.503906l-21.664063-104zm-64-96h48v80h-48zm-48 29.769531v50.230469h-32v-60.902344zm-112-29.769531h64v80h-48v-48h-16zm41.496094 96 76.664062 368h-284.328125l76.664063-368zm-41.496094-48v32h-48v-32zm-112-19.054688 24-12 24 12v51.054688h-48zm-48-28.945312v80h-48v-80zm-96 32h32v48h-32zm78.496094 216-14.496094 69.601562v-69.601562zm-78.496094-32h84.6875l8 8-8 8h-84.6875zm32 32h16v112h-16zm36.167969 128h11.832031v-16h-8.496094l24.265625-116.449219 19.542969-19.550781-12.808594-12.808594 24-115.191406h23.664063l-76.664063 368h-23.671875zm363.832031-16h-16v-112h16zm-32-42.398438-14.496094-69.601562h14.496094zm64-101.601562v16h-84.6875l-8-8 8-8zm-102.503906-4.808594-12.808594 12.808594 19.550781 19.550781 24.257813 116.449219h-8.496094v16h11.832031l18.335938 88h-23.664063l-76.664062-368h23.664062zm0 0"/><path d="m272 464v-96h-48v96zm-32-80h16v64h-16zm0 0"/><path d="m272 256h-48v96h48zm-16 80h-16v-64h16zm0 0"/><path d="m272 144h-48v96h48zm-16 80h-16v-64h16zm0 0"/></svg>