<svg height="480pt" viewBox="0 -12 480 480" width="480pt" xmlns="http://www.w3.org/2000/svg"><path d="m392 296h8c8.835938 0 16-7.164062 16-16v-32c0-8.835938-7.164062-16-16-16h-8v-168h24v32c0 4.417969 3.582031 8 8 8h32v-16h-24v-32c0-4.417969-3.582031-8-8-8h-32v-24c0-13.253906-10.746094-24-24-24s-24 10.746094-24 24v24h-16v-16c0-4.417969-3.582031-8-8-8h-160c-4.417969 0-8 3.582031-8 8v16h-16v-24c0-13.253906-10.746094-24-24-24s-24 10.746094-24 24v208h-8c-8.835938 0-16 7.164062-16 16v32c0 8.835938 7.164062 16 16 16h8v144h-56v16h448v-16h-88zm-288 40h40v24h-40zm144-40v24h-64v-24zm128 104h-32v-24h32zm-112 0v-24h64v24zm-80 0v-24h64v24zm120-64v24h-64v-24zm72 24h-56v-24h56zm-112-40v-24h64v24zm-40 16v24h-64v-24zm-120 40h64v24h-64zm120 40v24h-64v-24zm16 0h64v24h-64zm80 0h56v24h-56zm56-96h-32v-24h32zm-16-296c0-4.417969 3.582031-8 8-8s8 3.582031 8 8v208h-16zm-16 40v168h-16v-40c0-4.417969-3.582031-8-8-8h-8v-16c-.054688-14.546875-9.914062-27.226562-24-30.863281v-49.136719h32c4.417969 0 8-3.582031 8-8v-16zm-64 88c8.835938 0 16 7.164062 16 16v16h-32v-16c0-8.835938 7.164062-16 16-16zm-100.6875-80 32-32h17.375l-32 32zm72-32h17.375l-32 32h-17.375zm40 0h17.375l-32 32h-17.375zm20.6875 19.3125v12.6875h-12.6875zm0 140.6875v32h-64v-32zm-123.3125-160-20.6875 20.6875v-20.6875zm-36.6875 24v16c0 4.417969 3.582031 8 8 8h112v49.136719c-14.085938 3.636719-23.945312 16.316406-24 30.863281v16h-8c-4.417969 0-8 3.582031-8 8v40h-96v-168zm-48-40c0-4.417969 3.582031-8 8-8s8 3.582031 8 8v208h-16zm-24 224h320v32h-320zm88 48v24h-64v-24zm-64 120h40v24h-40zm0 0"/><path d="m0 440h16v16h-16zm0 0"/></svg>